# xmcd
#
# Track frame offsets:
# 150
# 13749
# 27230
# 40966
# 53750
# 67828
# 81354
# 94710
# 108226
# 121498
# 135680
# 148998
# 162066
# 175709
# 189343
# 202807
# 216282
# 229857
# 243272
# 256806
# 270144
# 283848
# 297108
# 314339
# 330225
#
# Disc length: 4605 seconds
#
#
# Revision: 0
# Processed by: cddbd v1.5.2PL0 Copyright (c) Steve Scherf et al.
# Submitted via: FreeRIP 2.945 
#
DISCID=5a11fb19
DTITLE=Murphy-P2001 - Wild-Angel7
DYEAR=2001
DGENRE=Jungle
TTITLE0=WA 701
TTITLE1=WA 702
TTITLE2=WA 703
TTITLE3=WA 704
TTITLE4=WA 705
TTITLE5=WA 706
TTITLE6=WA 707
TTITLE7=WA 708
TTITLE8=WA 709
TTITLE9=WA 710
TTITLE10=WA 711
TTITLE11=WA 712
TTITLE12=WA 713
TTITLE13=WA 714
TTITLE14=WA 715
TTITLE15=WA 716
TTITLE16=WA 717
TTITLE17=WA 718
TTITLE18=WA 719
TTITLE19=WA 720
TTITLE20=WA 721
TTITLE21=WA 722
TTITLE22=WA 723
TTITLE23=WA 724
TTITLE24=WA 725
EXTD=Wild Angel by Pat (Patrice) Murphy 9 CDs\nread by Bernadette Dunne Blackstone Audio\njungle country
EXTT0=
EXTT1=
EXTT2=
EXTT3=
EXTT4=
EXTT5=
EXTT6=
EXTT7=
EXTT8=
EXTT9=
EXTT10=
EXTT11=
EXTT12=
EXTT13=
EXTT14=
EXTT15=
EXTT16=
EXTT17=
EXTT18=
EXTT19=
EXTT20=
EXTT21=
EXTT22=
EXTT23=
EXTT24=
PLAYORDER=
